 <?xml version="1.0" encoding="UTF-8" standalone="no"?>
  <!DOCTYPE svg PUBLIC "-//W3C//DTD SVG 1.1//EN" "http://www.w3.org/Graphics/SVG/1.1/DTD/svg11.dtd">
  <svg width="100%" height="100%" viewBox="0 0 600 300" version="1.1" xmlns="http://www.w3.org/2000/svg" xmlns:xlink="http://www.w3.org/1999/xlink" xml:space="preserve" xmlns:serif="http://www.serif.com/" style="fill-rule:evenodd;clip-rule:evenodd;stroke-linejoin:round;stroke-miterlimit:1.41421;">
      <g transform="matrix(1.33333,0,0,1.33333,235.362,128.36)">
          <g transform="matrix(1,0,0,1,-50,-50)">
              <g transform="matrix(-0.69,0,0,0.69,84.5,15.5)">
                  <path d="M44.718,82.359C44.885,82.742 44.981,83.163 44.981,83.608L44.981,88.854L57.574,88.854C59.891,88.854 61.771,90.733 61.771,93.051C61.771,95.37 59.891,97.249 57.574,97.249L23.993,97.249C21.675,97.249 19.796,95.37 19.796,93.051C19.796,90.733 21.675,88.854 23.993,88.854L38.684,88.854L38.684,83.608C38.684,83.212 38.777,82.84 38.91,82.493C31.56,82.169 24.695,79.979 18.801,76.349C18.893,76.339 19.307,75.691 19.977,74.53C19.938,74.497 19.899,74.483 19.86,74.45C20.594,73.06 21.703,70.959 23.076,68.36C23.346,67.845 23.645,67.278 23.992,66.624C24.825,65.051 25.742,63.312 26.713,61.474C20.006,56.949 15.597,49.281 15.597,40.582C15.597,26.673 26.873,15.396 40.783,15.396C44.077,15.396 47.213,16.047 50.096,17.196C50.833,15.8 51.55,14.444 52.21,13.193C55.558,6.705 57.788,2.362 57.856,2.224C72.532,8.766 82.76,23.48 82.76,40.582C82.76,62.438 66.055,80.373 44.718,82.359ZM40.783,17.495C28.033,17.495 17.696,27.831 17.696,40.582C17.696,48.475 21.662,55.435 27.703,59.599C29.252,56.666 30.945,53.458 32.69,50.156C29.96,47.846 28.19,44.439 28.19,40.582C28.19,35.917 30.755,31.892 34.524,29.715C34.72,26.415 37.432,23.792 40.782,23.792C42.66,23.792 44.327,24.63 45.481,25.936C46.737,23.557 47.965,21.232 49.108,19.068C46.523,18.066 43.722,17.495 40.783,17.495ZM48.559,33.592C45.549,39.292 42.407,45.242 39.399,50.936C39.857,50.997 40.309,51.076 40.783,51.076C46.578,51.076 51.277,46.378 51.277,40.582C51.277,37.885 50.231,35.45 48.559,33.592ZM40.004,36.306C37.539,35.999 35.533,34.275 34.801,31.974C32.079,33.87 30.288,37.013 30.288,40.581C30.288,43.631 31.609,46.351 33.685,48.269C35.751,44.361 37.889,40.312 40.004,36.306ZM49.605,31.609C51.929,33.894 53.376,37.067 53.376,40.582C53.376,47.537 47.737,53.175 40.783,53.175C39.949,53.175 39.136,53.084 38.346,52.929C36.59,56.256 34.898,59.461 33.335,62.419C35.674,63.216 38.174,63.669 40.783,63.669C49.931,63.669 57.811,58.336 61.549,50.621C59.223,49.697 57.574,47.435 57.574,44.779C57.574,41.345 60.326,38.564 63.746,38.495C63.141,31.806 59.699,25.945 54.613,22.127C53.051,25.086 51.359,28.288 49.605,31.609ZM55.017,7.854C55.02,7.859 55.009,7.886 55.01,7.894C55.015,7.882 55.022,7.871 55.029,7.86C55.023,7.858 55.021,7.855 55.017,7.854ZM60.544,10.897C59.22,13.405 57.523,16.617 55.605,20.251C61.434,24.508 65.334,31.203 65.863,38.836C68.358,39.673 70.168,42.003 70.168,44.78C70.168,48.259 67.349,51.077 63.871,51.077C63.801,51.077 63.737,51.058 63.669,51.056C59.69,59.731 50.952,65.769 40.784,65.769C37.821,65.769 34.989,65.229 32.348,64.289C30.422,67.937 28.724,71.151 27.406,73.647C31.54,75.322 36.05,76.262 40.784,76.262C60.489,76.262 76.464,60.287 76.464,40.582C76.463,28.191 70.133,17.293 60.544,10.897Z"/>
              </g>
          </g>
      </g>
      <g transform="matrix(7.19123,0,0,7.19123,-928.487,-1071.13)">
          <path d="M148.299,162.644C149.131,163.337 149.547,164.292 149.547,165.508C149.547,166.724 149.131,167.679 148.299,168.372C147.467,169.065 146.326,169.412 144.875,169.412L142.107,169.412L142.107,172.804L140.507,172.804L140.507,161.604L144.875,161.604C146.326,161.604 147.467,161.951 148.299,162.644ZM147.147,167.372C147.68,166.94 147.947,166.319 147.947,165.508C147.947,164.697 147.68,164.076 147.147,163.644C146.614,163.212 145.84,162.996 144.827,162.996L142.107,162.996L142.107,168.02L144.827,168.02C145.84,168.02 146.614,167.804 147.147,167.372Z" style="fill-rule:nonzero;"/>
          <path d="M156.683,172.308C156.459,172.5 156.182,172.647 155.851,172.748C155.52,172.849 155.179,172.9 154.827,172.9C153.974,172.9 153.312,172.671 152.843,172.212C152.374,171.753 152.139,171.097 152.139,170.244L152.139,165.588L150.699,165.588L150.699,164.324L152.139,164.324L152.139,162.468L153.675,162.468L153.675,164.324L156.107,164.324L156.107,165.588L153.675,165.588L153.675,170.18C153.675,170.639 153.79,170.991 154.019,171.236C154.248,171.481 154.576,171.604 155.003,171.604C155.472,171.604 155.872,171.471 156.203,171.204L156.683,172.308Z" style="fill-rule:nonzero;"/>
          <rect x="168.411" y="160.932" width="1.536" height="11.872" style="fill-rule:nonzero;"/>
          <path d="M180.507,169.076L173.627,169.076C173.723,169.823 174.051,170.423 174.611,170.876C175.171,171.329 175.867,171.556 176.699,171.556C177.712,171.556 178.528,171.215 179.147,170.532L179.995,171.524C179.611,171.972 179.134,172.313 178.563,172.548C177.992,172.783 177.355,172.9 176.651,172.9C175.755,172.9 174.96,172.716 174.267,172.348C173.574,171.98 173.038,171.465 172.659,170.804C172.28,170.143 172.091,169.396 172.091,168.564C172.091,167.743 172.275,167.001 172.643,166.34C173.011,165.679 173.518,165.164 174.163,164.796C174.808,164.428 175.536,164.244 176.347,164.244C177.158,164.244 177.88,164.428 178.515,164.796C179.15,165.164 179.646,165.679 180.003,166.34C180.36,167.001 180.539,167.759 180.539,168.612C180.539,168.729 180.528,168.884 180.507,169.076ZM174.499,166.212C174.003,166.66 173.712,167.247 173.627,167.972L179.067,167.972C178.982,167.257 178.691,166.673 178.195,166.22C177.699,165.767 177.083,165.54 176.347,165.54C175.611,165.54 174.995,165.764 174.499,166.212Z" style="fill-rule:nonzero;"/>
          <path d="M195.811,165.172C196.435,165.791 196.747,166.708 196.747,167.924L196.747,172.804L195.211,172.804L195.211,168.1C195.211,167.279 195.022,166.66 194.643,166.244C194.264,165.828 193.723,165.62 193.019,165.62C192.24,165.62 191.622,165.863 191.163,166.348C190.704,166.833 190.475,167.529 190.475,168.436L190.475,172.804L188.939,172.804L188.939,168.1C188.939,167.279 188.75,166.66 188.371,166.244C187.992,165.828 187.451,165.62 186.747,165.62C185.968,165.62 185.35,165.863 184.891,166.348C184.432,166.833 184.203,167.529 184.203,168.436L184.203,172.804L182.667,172.804L182.667,164.324L184.139,164.324L184.139,165.588C184.448,165.151 184.854,164.817 185.355,164.588C185.856,164.359 186.427,164.244 187.067,164.244C187.728,164.244 188.315,164.377 188.827,164.644C189.339,164.911 189.734,165.3 190.011,165.812C190.331,165.321 190.776,164.937 191.347,164.66C191.918,164.383 192.56,164.244 193.275,164.244C194.342,164.244 195.187,164.553 195.811,165.172Z" style="fill-rule:nonzero;"/>
          <path d="M206.923,164.324L202.811,173.652C202.448,174.516 202.024,175.124 201.539,175.476C201.054,175.828 200.47,176.004 199.787,176.004C199.371,176.004 198.968,175.937 198.579,175.804C198.19,175.671 197.867,175.476 197.611,175.22L198.267,174.068C198.704,174.484 199.211,174.692 199.787,174.692C200.16,174.692 200.472,174.593 200.723,174.396C200.974,174.199 201.2,173.86 201.403,173.38L201.675,172.788L197.931,164.324L199.531,164.324L202.491,171.108L205.419,164.324L206.923,164.324Z" style="fill-rule:nonzero;"/>
      </g>
  </svg>