<?xml version="1.0" encoding="UTF-8" standalone="no"?><!DOCTYPE svg PUBLIC "-//W3C//DTD SVG 1.1//EN" "http://www.w3.org/Graphics/SVG/1.1/DTD/svg11.dtd"><svg width="100%" height="100%" viewBox="0 0 450 225" version="1.1" xmlns="http://www.w3.org/2000/svg" xmlns:xlink="http://www.w3.org/1999/xlink" xml:space="preserve" xmlns:serif="http://www.serif.com/" style="fill-rule:evenodd;clip-rule:evenodd;stroke-linejoin:round;stroke-miterlimit:1.41421;"><g><path d="M164.612,134.828c-0.115,0.264 -0.181,0.554 -0.181,0.862l0,3.619l-8.689,0c-1.599,0 -2.896,1.297 -2.896,2.896c0,1.6 1.297,2.897 2.896,2.897l23.17,0c1.6,0 2.896,-1.297 2.896,-2.897c0,-1.599 -1.296,-2.896 -2.896,-2.896l-10.136,0l0,-3.619c0,-0.274 -0.065,-0.53 -0.156,-0.77c5.071,-0.223 9.808,-1.734 13.875,-4.239c-0.064,-0.007 -0.349,-0.454 -0.812,-1.255c0.027,-0.023 0.054,-0.033 0.081,-0.055c-0.506,-0.96 -1.271,-2.409 -2.219,-4.203c-0.186,-0.355 -0.392,-0.746 -0.632,-1.197c-0.575,-1.086 -1.207,-2.286 -1.877,-3.554c4.627,-3.122 7.67,-8.413 7.67,-14.415c0,-9.598 -7.781,-17.379 -17.379,-17.379c-2.273,0 -4.436,0.449 -6.426,1.242c-0.508,-0.963 -1.003,-1.899 -1.458,-2.762c-2.31,-4.477 -3.849,-7.473 -3.896,-7.568c-10.126,4.514 -17.184,14.666 -17.184,26.467c0,15.08 11.527,27.455 26.249,28.826Zm2.715,-44.756c8.798,0 15.93,7.131 15.93,15.93c0,5.446 -2.736,10.248 -6.904,13.121c-1.069,-2.023 -2.237,-4.237 -3.441,-6.515c1.883,-1.594 3.105,-3.945 3.105,-6.606c0,-3.219 -1.77,-5.997 -4.371,-7.499c-0.135,-2.277 -2.006,-4.087 -4.318,-4.087c-1.296,0 -2.446,0.579 -3.242,1.48c-0.867,-1.642 -1.714,-3.246 -2.503,-4.739c1.784,-0.691 3.716,-1.085 5.744,-1.085Zm-5.365,11.106c2.077,3.933 4.245,8.039 6.32,11.968c-0.316,0.042 -0.628,0.096 -0.955,0.096c-3.998,0 -7.241,-3.241 -7.241,-7.24c0,-1.861 0.722,-3.541 1.876,-4.824Zm5.903,1.873c1.701,-0.212 3.085,-1.401 3.59,-2.989c1.878,1.308 3.114,3.477 3.114,5.939c0,2.104 -0.912,3.981 -2.344,5.305c-1.426,-2.697 -2.901,-5.491 -4.36,-8.255Zm-6.625,-3.241c-1.603,1.577 -2.602,3.766 -2.602,6.192c0,4.799 3.891,8.689 8.689,8.689c0.576,0 1.137,-0.063 1.682,-0.17c1.212,2.296 2.379,4.507 3.457,6.548c-1.613,0.55 -3.338,0.863 -5.139,0.863c-6.312,0 -11.749,-3.68 -14.328,-9.004c1.605,-0.637 2.743,-2.198 2.743,-4.03c0,-2.37 -1.899,-4.289 -4.259,-4.336c0.417,-4.616 2.792,-8.66 6.302,-11.294c1.077,2.041 2.245,4.251 3.455,6.542Zm-3.734,-16.391c-0.002,0.004 0.005,0.022 0.005,0.028c-0.004,-0.008 -0.009,-0.016 -0.013,-0.024c0.004,-0.001 0.005,-0.003 0.008,-0.004Zm-3.814,2.1c0.914,1.73 2.085,3.947 3.408,6.454c-4.022,2.938 -6.713,7.557 -7.078,12.824c-1.721,0.577 -2.97,2.185 -2.97,4.101c0,2.401 1.945,4.345 4.345,4.345c0.048,0 0.092,-0.013 0.139,-0.014c2.746,5.985 8.775,10.152 15.791,10.152c2.044,0 3.998,-0.373 5.82,-1.022c1.329,2.518 2.501,4.735 3.41,6.457c-2.852,1.156 -5.964,1.805 -9.23,1.805c-13.597,0 -24.62,-11.023 -24.62,-24.619c0.001,-8.55 4.369,-16.07 10.985,-20.483Z"/><g><path d="M87.921,90.089c4.487,3.739 6.731,8.888 6.731,15.446c0,6.559 -2.244,11.708 -6.731,15.447c-4.487,3.74 -10.643,5.609 -18.467,5.609l-14.929,0l0,18.295l-8.63,0l0,-60.406l23.559,0c7.824,0 13.98,1.869 18.467,5.609Zm-6.213,25.5c2.876,-2.33 4.314,-5.681 4.314,-10.054c0,-4.372 -1.438,-7.723 -4.314,-10.053c-2.877,-2.33 -7.048,-3.495 -12.513,-3.495l-14.67,0l0,27.097l14.67,0c5.465,0 9.636,-1.165 12.513,-3.495Z" style="fill-rule:nonzero;"/><path d="M133.139,142.211c-1.208,1.035 -2.704,1.826 -4.487,2.373c-1.783,0.546 -3.624,0.82 -5.523,0.82c-4.602,0 -8.169,-1.237 -10.7,-3.711c-2.532,-2.474 -3.797,-6.012 -3.797,-10.614l0,-25.112l-7.767,0l0,-6.817l7.767,0l0,-10.011l8.284,0l0,10.011l13.117,0l0,6.817l-13.117,0l0,24.767c0,2.473 0.618,4.372 1.855,5.695c1.237,1.323 3.006,1.985 5.307,1.985c2.532,0 4.689,-0.719 6.472,-2.158l2.589,5.955Z" style="fill-rule:nonzero;"/><rect x="196.393" y="80.855" width="8.284" height="64.031" style="fill-rule:nonzero;"/><path d="M261.632,124.779l-37.107,0c0.518,4.027 2.287,7.263 5.308,9.708c3.02,2.445 6.774,3.668 11.261,3.668c5.465,0 9.866,-1.841 13.203,-5.523l4.574,5.35c-2.071,2.417 -4.646,4.257 -7.724,5.523c-3.078,1.266 -6.515,1.899 -10.312,1.899c-4.832,0 -9.118,-0.993 -12.858,-2.978c-3.739,-1.984 -6.63,-4.76 -8.672,-8.327c-2.043,-3.567 -3.064,-7.594 -3.064,-12.081c0,-4.43 0.992,-8.428 2.977,-11.995c1.985,-3.567 4.718,-6.343 8.198,-8.328c3.481,-1.984 7.407,-2.977 11.779,-2.977c4.373,0 8.27,0.993 11.693,2.977c3.423,1.985 6.099,4.761 8.026,8.328c1.927,3.567 2.891,7.651 2.891,12.254c0,0.632 -0.058,1.467 -0.173,2.502Zm-32.404,-15.447c-2.675,2.417 -4.242,5.581 -4.703,9.493l29.341,0c-0.461,-3.855 -2.028,-7.004 -4.703,-9.449c-2.676,-2.445 -5.998,-3.668 -9.968,-3.668c-3.969,0 -7.291,1.208 -9.967,3.624Z" style="fill-rule:nonzero;"/><path d="M344.173,103.723c3.365,3.337 5.048,8.285 5.048,14.843l0,26.32l-8.284,0l0,-25.371c0,-4.43 -1.021,-7.766 -3.064,-10.01c-2.042,-2.244 -4.961,-3.365 -8.758,-3.365c-4.2,0 -7.537,1.308 -10.011,3.926c-2.473,2.618 -3.71,6.371 -3.71,11.261l0,23.559l-8.285,0l0,-25.371c0,-4.43 -1.021,-7.766 -3.063,-10.01c-2.042,-2.244 -4.962,-3.365 -8.759,-3.365c-4.2,0 -7.536,1.308 -10.01,3.926c-2.474,2.618 -3.711,6.371 -3.711,11.261l0,23.559l-8.284,0l0,-45.736l7.939,0l0,6.817c1.668,-2.359 3.854,-4.157 6.558,-5.393c2.704,-1.237 5.782,-1.856 9.234,-1.856c3.567,0 6.731,0.719 9.492,2.158c2.762,1.438 4.89,3.538 6.386,6.299c1.726,-2.646 4.128,-4.717 7.206,-6.213c3.078,-1.496 6.544,-2.244 10.398,-2.244c5.753,0 10.312,1.669 13.678,5.005Z" style="fill-rule:nonzero;"/><path d="M404.105,99.15l-22.178,50.309c-1.956,4.66 -4.243,7.94 -6.861,9.838c-2.617,1.899 -5.767,2.848 -9.449,2.848c-2.243,0 -4.415,-0.36 -6.515,-1.079c-2.1,-0.719 -3.84,-1.769 -5.221,-3.15l3.538,-6.213c2.359,2.244 5.092,3.366 8.198,3.366c2.014,0 3.697,-0.533 5.048,-1.597c1.352,-1.064 2.575,-2.891 3.668,-5.48l1.467,-3.192l-20.193,-45.65l8.63,0l15.964,36.589l15.792,-36.589l8.112,0Z" style="fill-rule:nonzero;"/></g></g></svg>